<?xml version="1.0" encoding="UTF-8"?>
<svg id="Livello_2" data-name="Livello 2" xmlns="http://www.w3.org/2000/svg" xmlns:xlink="http://www.w3.org/1999/xlink" viewBox="0 0 382.53 417.62">
  <defs>
    <style>
      .cls-1 {
        stroke: #ea5719;
      }

      .cls-1, .cls-2 {
        stroke-linecap: round;
        stroke-linejoin: round;
        stroke-width: 14px;
      }

      .cls-1, .cls-2, .cls-3 {
        fill: none;
      }

      .cls-2 {
        stroke: #5cbeb5;
      }

      .cls-3, .cls-4, .cls-5 {
        stroke-width: 0px;
      }

      .cls-6 {
        clip-path: url(#clippath);
      }

      .cls-4 {
        fill: #1d1d1b;
      }

      .cls-5 {
        fill: #fff;
      }
    </style>
    <clipPath id="clippath">
      <path class="cls-3" d="M55.05-2v421.62h309.07V-2H55.05ZM122.24,303.65l-11.31-11.31c2.76-3.37,5.6-7.16,8.48-11.32l11.46,11.46c-2.92,4.09-5.82,7.84-8.63,11.17ZM326.23,176.57s-.02.03-.02.04l-11.8-11.8c2.86-5.66,4.57-11.07,4.57-14.67l.23-.33,13.32,13.32c-1.85,5.37-4.4,10.22-6.3,13.44Z"/>
    </clipPath>
  </defs>
  <g id="Livello_2-2" data-name="Livello 2">
    <path class="cls-5" d="M33.67,194.63c6.17-13.41,1.4-26.22-2.43-39.41C14.63,76.93,125.08,24.7,190.02,36.76c10.98,1.73,21.66,3.5,33.24,4.48,47.07,3.37,87.82.89,92.13,46.72,1.32,9.3,1.29,19.37,1.22,28.64,0,6.2.46,11.9,2.28,15.94,4.07,9.49,17.07,8.83,26.1,8.86,67.27-5.42,23.36,78.88,24.67,134.02.14,7.14.74,14.31.05,21.32-.61,6.38-2.48,12.62-6.08,18.24-7.54,12.23-21.31,18.99-35.17,21.31-71.99,7.55-106.16,104.37-188.38,64.93-10.86-5.11-22.15-10.3-29.02-19.75-9.96-13.32-4-35.67-14.19-45.84-4.69-4.32-12-4.04-18.4-3.54-30.26,5.61-63.34-7.84-74.5-36.94-14.44-37.04,14.23-69.14,29.65-100.34l.07-.18Z"/>
    <path class="cls-4" d="M48.52,198.01c5.14-10.57,2.96-21.85-.19-32.62C29.12,93.73,125.31,43.79,185.95,50.88c5.97.63,11.66,1.54,17.74,2.4,10.91,1.63,22.9,2.68,34.15,3.31,61.86,2.93,74.96,17.51,73.94,73.39.28,3.83.89,7.29,2.05,10.03,3.76,9.54,16.44,8.73,25.23,9.02,60.25-3.46,20.14,73.4,21.33,123.31.08,7.07.61,14.2-.22,21.12-.71,6.04-2.62,11.93-6.16,17.16-6.96,10.74-19.25,16.46-31.5,18.92-10.52,2.27-21.1,4.54-30.61,9.65-46.91,24.07-82.24,77.15-140.69,52.81-8.75-3.6-18.29-9-24.42-15.23-5.93-5.74-9.34-13.31-10.92-21.18-1.65-7.9-2.98-17.81-4.96-23.12-.82-2.13-1.67-3.86-3.26-5.27-.86-.77-1.88-1.32-3-1.72-4.54-1.62-12.68-.82-21.76.05-7.38.7-15.05.96-22.43-.54-10.69-2.14-20.78-7.9-27.99-16-21.66-24.93-12.48-61.27,4.71-91.32,3.65-6.46,8.2-12.79,11.24-19.49l.08-.17Z"/>
  </g>
  <g id="Livello_3" data-name="Livello 3">
    <g>
      <g>
        <path class="cls-1" d="M64.05,248.08c1.79,20.65,1.33,42.32,9.36,61.41,37.71,53.55,127.21-159.02,135.75-237.47,2.77-16.83,5.1-38.77,5.79-53.87.44-9.13.22-12.75-.07-10.5-.68,6.55-.77,19.67-.8,29.23.55,78.36,2.28,157.96,8.92,235.75.49,7.22.65,12.48.07,15.27-1.96,9.49-15.39-13.08-18.09-17.5-32.69-56.4,19.69-33.14,64.18-54.97,19.95-8.94,39.05-24.2,50.16-42.91,6.19-10.53,13.16-28.51.82-33.38-14.23-2.46-29.11,12.69-39.22,25.3-39.44,53.31-58.07,123.36-87.72,181.09-9.92,19.33-20.34,41.05-32.74,58.33-4.19,5.2-7.49,9.19-9.35,5.03-1.14-30.33,26.79-105.2,43.76-132.9,9.25-14.8,23.28-30.84,41.98-30.28,12.83.41,24.92,6.95,37.6,10.36,26.98,7.93,54.16-2.6,80.65-12.24"/>
        <path class="cls-1" d="M171.15,198.76c10.28-15.18,28.48-18.14,46.08-18.14"/>
      </g>
      <path class="cls-2" d="M245.02,85.52s107.32,107.32,123.32,123.32c-16.18,16.18-123.26,123.26-123.26,123.26"/>
      <path class="cls-2" d="M160.59,332.1s-107.32-107.32-123.32-123.32c16.18-16.18,123.26-123.26,123.26-123.26"/>
      <g class="cls-6">
        <g>
          <path class="cls-1" d="M64.05,248.08c1.79,20.65,1.33,42.32,9.36,61.41,37.71,53.55,127.21-159.02,135.75-237.47,2.77-16.83,5.1-38.77,5.79-53.87.44-9.13.22-12.75-.07-10.5-.68,6.55-.77,19.67-.8,29.23.55,78.36,2.28,157.96,8.92,235.75.49,7.22.65,12.48.07,15.27-1.96,9.49-15.39-13.08-18.09-17.5-32.69-56.4,19.69-33.14,64.18-54.97,19.95-8.94,39.05-24.2,50.16-42.91,6.19-10.53,13.16-28.51.82-33.38-14.23-2.46-29.11,12.69-39.22,25.3-39.44,53.31-58.07,123.36-87.72,181.09-9.92,19.33-20.34,41.05-32.74,58.33-4.19,5.2-7.49,9.19-9.35,5.03-1.14-30.33,26.79-105.2,43.76-132.9,9.25-14.8,23.28-30.84,41.98-30.28,12.83.41,24.92,6.95,37.6,10.36,26.98,7.93,54.16-2.6,80.65-12.24"/>
          <path class="cls-1" d="M171.15,198.76c10.28-15.18,28.48-18.14,46.08-18.14"/>
        </g>
      </g>
    </g>
  </g>
</svg>